<svg width="56" height="56" viewBox="0 0 56 56" fill="none" xmlns="http://www.w3.org/2000/svg">
<g clip-path="url(#clip0_23_2)">
<rect width="56" height="56" fill="#EF4E2D"/>
<path d="M27.9999 12C24.358 12 21.5763 15.3021 21.2768 19.3333H14.3667C13.5908 19.3333 12.9589 19.9873 13.0021 20.7422L14.1811 40.8568C14.2833 42.6148 15.7876 44 17.5928 44H38.4071C40.2128 44 41.7166 42.6146 41.8187 40.8568L42.9978 20.7435C43.0423 19.9881 42.4091 19.3333 41.6331 19.3333H34.7231C34.4235 15.3021 31.6419 12 27.9999 12ZM27.9999 13.3333C30.7598 13.3333 33.0651 15.9245 33.3571 19.3333H22.6428C22.9347 15.9245 25.24 13.3333 27.9999 13.3333ZM28.0547 23.3333C30.6799 23.3333 32.6482 24.7073 32.8123 24.8073L32.1086 25.9206C31.9377 25.8072 31.6306 25.6266 31.5144 25.5599C30.8171 25.1932 29.5314 24.6471 28.0547 24.6471C25.8328 24.6471 24.2264 25.8467 24.2264 27.5C24.2264 29.1467 25.7167 29.7998 28.1642 30.6732C30.6459 31.5532 33.4492 32.5531 33.4492 35.7331C33.4492 38.1264 31.0287 40.0065 27.9385 40.0065C25.2107 40.0065 22.9682 38.3734 22.4145 37.9401L23.1729 36.8398C23.1934 36.8598 25.3748 38.6862 27.9385 38.6862C30.2356 38.6862 32.1019 37.3597 32.1019 35.7331C32.1019 33.6264 30.441 32.8796 27.6995 31.9063C25.4434 31.0996 22.8791 30.1867 22.8791 27.5C22.8791 25.1267 25.1013 23.3333 28.0547 23.3333Z" fill="white"/>
<path d="M56.26 0H0V56.26H56.26V0Z" fill="url(#paint0_linear_23_2)"/>
<path d="M28.2558 47.8302C27.9332 47.8326 27.6153 47.7496 27.3348 47.5906C24.933 46.2013 7.14039 35.0459 6.46861 34.7052C5.95695 34.4668 5.60781 33.978 5.54762 33.417V17.7697C5.53437 17.1858 5.82331 16.6357 6.3109 16.3154L6.43971 16.242C8.16131 15.1741 13.9232 11.6587 14.8334 11.1518C15.0429 11.0278 15.2812 10.9616 15.5232 10.958C15.7508 10.9604 15.9747 11.017 16.177 11.1241C16.177 11.1241 24.2396 16.3792 25.4736 16.8488C26.3392 17.246 27.283 17.4447 28.2353 17.429C29.314 17.4519 30.3807 17.1919 31.3282 16.6742C32.5345 16.0385 40.2383 11.1518 40.3202 11.1518C40.514 11.0351 40.738 10.9737 40.9643 10.9773C41.2075 10.9773 41.4459 11.0447 41.6541 11.1711C42.7039 11.7514 49.8456 16.1228 50.1489 16.3166C50.651 16.62 50.9556 17.1654 50.9495 17.7529V33.4001C50.893 33.9624 50.5426 34.4536 50.0285 34.6883C49.3568 35.0567 31.6207 46.2122 29.172 47.5738C28.8927 47.7387 28.576 47.8278 28.2522 47.8314" fill="url(#paint1_linear_23_2)"/>
<path d="M28.1631 47.8302H28.2546C28.5773 47.8326 28.8939 47.7496 29.1744 47.5907C31.5762 46.2013 49.3592 35.0459 50.031 34.7052C50.5451 34.4692 50.8954 33.9792 50.9508 33.417V17.7697C50.9544 17.5049 50.8942 17.2424 50.7762 17.0065L28.1619 29.4224V47.8314" fill="url(#paint2_linear_23_2)"/>
<path d="M28.0849 47.6087H27.9934C27.6743 47.6111 27.3601 47.5293 27.0832 47.3715C24.7067 45.9967 7.11391 34.9604 6.44935 34.6233C5.9413 34.3898 5.59457 33.9046 5.53919 33.3484V17.8685C5.53679 17.606 5.59578 17.3472 5.71256 17.1124L28.0861 29.3971V47.6099" fill="url(#paint3_linear_23_2)"/>
<path d="M17.1918 22.8912H19.2541V32.8138H22.8093V34.7726H17.2015L17.193 22.8912" fill="white"/>
<path d="M27.584 25.8673C28.676 25.854 29.7126 26.3512 30.3843 27.2132V26.0442H32.3082V34.7883H30.3843V33.6193C29.7126 34.4813 28.6772 34.9785 27.584 34.9652C25.1859 34.9652 23.3655 32.9162 23.3655 30.4144C23.3655 27.9127 25.1859 25.8673 27.584 25.8673ZM27.9344 27.619C26.3765 27.619 25.346 28.8445 25.346 30.4144C25.346 31.9843 26.3946 33.2147 27.9344 33.2147C29.4742 33.2147 30.5228 31.9892 30.5228 30.4144C30.5228 28.8397 29.491 27.619 27.9344 27.619Z" fill="white"/>
<path d="M33.8046 33.2701L38.3903 27.7911H33.8733V26.0443H40.8752V27.5841L36.3064 33.0414H40.9787V34.7883H33.8046V33.2701Z" fill="white"/>
</g>
<defs>
<linearGradient id="paint0_linear_23_2" x1="27.566" y1="-48.0879" x2="28.2931" y2="50.0406" gradientUnits="userSpaceOnUse">
<stop offset="0.34" stop-color="#5B8BEB"/>
<stop offset="0.78" stop-color="#2741A2"/>
<stop offset="1" stop-color="#112283"/>
</linearGradient>
<linearGradient id="paint1_linear_23_2" x1="5.66819" y1="29.4947" x2="50.6573" y2="29.146" gradientUnits="userSpaceOnUse">
<stop stop-color="#FFB900"/>
<stop offset="0.34" stop-color="#F38000"/>
<stop offset="0.57" stop-color="#F83C72"/>
<stop offset="0.78" stop-color="#FC1CBE"/>
<stop offset="0.93" stop-color="#FE08ED"/>
<stop offset="1" stop-color="#FF00FF"/>
</linearGradient>
<linearGradient id="paint2_linear_23_2" x1="18.3086" y1="44.2206" x2="64.1762" y2="18.8191" gradientUnits="userSpaceOnUse">
<stop stop-color="#EE0A3F"/>
<stop offset="1" stop-color="#EE0A3F"/>
</linearGradient>
<linearGradient id="paint3_linear_23_2" x1="23.1154" y1="36.7905" x2="0.952735" y2="18.933" gradientUnits="userSpaceOnUse">
<stop stop-color="#ED6600"/>
<stop offset="1" stop-color="#F98200"/>
</linearGradient>
<clipPath id="clip0_23_2">
<rect width="56" height="56" fill="white"/>
</clipPath>
</defs>
</svg>
